<?xml version="1.0" encoding="utf-8"?><svg version="1.1" id="Layer_1" xmlns="http://www.w3.org/2000/svg" xmlns:xlink="http://www.w3.org/1999/xlink" x="0px" y="0px" viewBox="0 0 122.88 48.95" style="enable-background:new 0 0 122.88 48.95" xml:space="preserve"><style type="text/css"><![CDATA[
	.st0{fill-rule:evenodd;clip-rule:evenodd;fill:#D8453E;}
	.st1{fill-rule:evenodd;clip-rule:evenodd;fill:#393939;}
]]></style><g><path class="st1" d="M8.64,0h105.61c2.38,0,4.53,0.97,6.1,2.54c1.57,1.57,2.54,3.73,2.54,6.1v31.68c0,2.37-0.98,4.53-2.54,6.09 c-1.57,1.57-3.73,2.54-6.1,2.54H8.64c-2.37,0-4.53-0.97-6.1-2.54C0.97,44.84,0,42.69,0,40.31V8.64c0-2.38,0.97-4.54,2.54-6.1 l0.1-0.09C4.19,0.93,6.31,0,8.64,0L8.64,0z M45.92,45.66V3.28H8.64c-1.44,0-2.75,0.57-3.71,1.5L4.86,4.86 C3.89,5.83,3.28,7.17,3.28,8.64v31.68c0,1.47,0.6,2.81,1.58,3.78c0.97,0.97,2.31,1.58,3.78,1.58H45.92L45.92,45.66z M107.98,26.27 l5.34,1.6c-0.36,1.5-0.93,2.75-1.69,3.74c-0.78,1-1.72,1.76-2.87,2.27c-1.13,0.5-2.6,0.76-4.36,0.76c-2.14,0-3.9-0.31-5.25-0.93 c-1.35-0.62-2.52-1.71-3.52-3.29c-0.98-1.56-1.48-3.57-1.48-6c0-3.25,0.86-5.76,2.6-7.51c1.74-1.75,4.19-2.62,7.36-2.62 c2.48,0,4.43,0.5,5.85,1.51c1.42,1,2.48,2.54,3.17,4.63l-5.37,1.18c-0.19-0.6-0.38-1.03-0.59-1.31c-0.34-0.46-0.76-0.82-1.25-1.07 c-0.49-0.25-1.05-0.37-1.66-0.37c-1.39,0-2.44,0.56-3.18,1.66c-0.54,0.82-0.84,2.12-0.84,3.86c0,2.18,0.33,3.68,0.99,4.49 c0.67,0.81,1.59,1.21,2.79,1.21c1.17,0,2.04-0.33,2.64-0.98C107.27,28.46,107.71,27.51,107.98,26.27L107.98,26.27L107.98,26.27 L107.98,26.27z M75.45,14.63h16.28v4.2H81.55v3.13h9.43v4.02h-9.43v3.88h10.48v4.45H75.45V14.63L75.45,14.63L75.45,14.63 L75.45,14.63z M54.6,34.33V14.63h10.14c1.88,0,3.32,0.16,4.31,0.48c0.99,0.33,1.8,0.93,2.4,1.79c0.61,0.87,0.92,1.94,0.92,3.2 c0,1.09-0.24,2.03-0.7,2.83c-0.46,0.8-1.1,1.44-1.92,1.93c-0.51,0.31-1.23,0.57-2.14,0.78c0.72,0.24,1.26,0.48,1.58,0.72 c0.22,0.16,0.54,0.51,0.97,1.04c0.43,0.52,0.7,0.94,0.85,1.22l2.96,5.69H67.1l-3.25-6c-0.43-0.78-0.78-1.29-1.1-1.52 c-0.44-0.31-0.94-0.46-1.49-0.46h-0.54v7.98L54.6,34.33L54.6,34.33L54.6,34.33L54.6,34.33z M60.71,22.63h2.58 c0.27,0,0.82-0.1,1.62-0.27c0.4-0.09,0.73-0.28,0.98-0.62c0.25-0.34,0.38-0.72,0.38-1.15c0-0.63-0.21-1.13-0.6-1.46 c-0.4-0.34-1.17-0.51-2.27-0.51h-2.67v4.02H60.71L60.71,22.63L60.71,22.63z"/><path class="st0" d="M39.05,24.09c0,6.9-6.34,13.25-13.25,13.25c-6.9,0-13.25-6.34-13.25-13.25c0-8.56,6.58-12.86,13.18-12.88 C32.38,11.18,39.05,15.47,39.05,24.09L39.05,24.09L39.05,24.09L39.05,24.09z M25.8,17.5c3.63,0,6.58,2.95,6.58,6.58 c0,3.63-2.95,6.58-6.58,6.58c-3.63,0-6.58-2.95-6.58-6.58C19.22,20.45,22.16,17.5,25.8,17.5L25.8,17.5L25.8,17.5L25.8,17.5z"/></g></svg>